<svg xmlns="http://www.w3.org/2000/svg" viewBox="0 0 800 500" aria-hidden="true">
  <defs>
    <linearGradient id="fg" x1="0%" y1="0%" x2="100%" y2="100%">
      <stop offset="0%" stop-color="#6366f1" stop-opacity="0.08"/>
      <stop offset="100%" stop-color="#06b6d4" stop-opacity="0.04"/>
    </linearGradient>
  </defs>
  <rect width="800" height="500" fill="url(#fg)" rx="16"/>
  <!-- Feature grid icons -->
  <rect x="80" y="80" width="180" height="160" rx="12" fill="white" fill-opacity="0.06" stroke="#6366f1" stroke-opacity="0.2" stroke-width="1"/>
  <rect x="300" y="80" width="180" height="160" rx="12" fill="white" fill-opacity="0.06" stroke="#6366f1" stroke-opacity="0.2" stroke-width="1"/>
  <rect x="520" y="80" width="180" height="160" rx="12" fill="white" fill-opacity="0.06" stroke="#6366f1" stroke-opacity="0.2" stroke-width="1"/>
  <rect x="80" y="268" width="180" height="160" rx="12" fill="white" fill-opacity="0.06" stroke="#6366f1" stroke-opacity="0.2" stroke-width="1"/>
  <rect x="300" y="268" width="180" height="160" rx="12" fill="white" fill-opacity="0.06" stroke="#6366f1" stroke-opacity="0.2" stroke-width="1"/>
  <rect x="520" y="268" width="180" height="160" rx="12" fill="white" fill-opacity="0.06" stroke="#6366f1" stroke-opacity="0.2" stroke-width="1"/>
  <!-- Icon dots -->
  <circle cx="170" cy="145" r="24" fill="#6366f1" fill-opacity="0.2"/>
  <circle cx="390" cy="145" r="24" fill="#8b5cf6" fill-opacity="0.2"/>
  <circle cx="610" cy="145" r="24" fill="#06b6d4" fill-opacity="0.2"/>
  <circle cx="170" cy="333" r="24" fill="#10b981" fill-opacity="0.2"/>
  <circle cx="390" cy="333" r="24" fill="#f59e0b" fill-opacity="0.2"/>
  <circle cx="610" cy="333" r="24" fill="#ef4444" fill-opacity="0.2"/>
  <!-- Text placeholders -->
  <rect x="110" y="185" width="120" height="8" rx="4" fill="white" fill-opacity="0.2"/>
  <rect x="110" y="203" width="100" height="6" rx="3" fill="white" fill-opacity="0.1"/>
  <rect x="330" y="185" width="120" height="8" rx="4" fill="white" fill-opacity="0.2"/>
  <rect x="330" y="203" width="100" height="6" rx="3" fill="white" fill-opacity="0.1"/>
  <rect x="550" y="185" width="120" height="8" rx="4" fill="white" fill-opacity="0.2"/>
  <rect x="550" y="203" width="100" height="6" rx="3" fill="white" fill-opacity="0.1"/>
</svg>