<svg xmlns="http://www.w3.org/2000/svg" viewBox="0 0 800 500" aria-hidden="true">
  <defs>
    <linearGradient id="hg" x1="0%" y1="0%" x2="100%" y2="100%">
      <stop offset="0%" stop-color="#6366f1" stop-opacity="0.15"/>
      <stop offset="100%" stop-color="#8b5cf6" stop-opacity="0.05"/>
    </linearGradient>
    <linearGradient id="cg" x1="0%" y1="0%" x2="100%" y2="100%">
      <stop offset="0%" stop-color="#6366f1" stop-opacity="0.8"/>
      <stop offset="100%" stop-color="#8b5cf6" stop-opacity="0.6"/>
    </linearGradient>
  </defs>
  <rect width="800" height="500" fill="url(#hg)" rx="16"/>
  <!-- Dashboard window -->
  <rect x="120" y="60" width="560" height="380" rx="12" fill="white" fill-opacity="0.08" stroke="white" stroke-opacity="0.15" stroke-width="1"/>
  <rect x="120" y="60" width="560" height="36" rx="12" fill="white" fill-opacity="0.1"/>
  <circle cx="148" cy="78" r="6" fill="#ef4444" fill-opacity="0.7"/>
  <circle cx="168" cy="78" r="6" fill="#f59e0b" fill-opacity="0.7"/>
  <circle cx="188" cy="78" r="6" fill="#10b981" fill-opacity="0.7"/>
  <!-- Stats cards -->
  <rect x="140" y="116" width="120" height="70" rx="8" fill="white" fill-opacity="0.06" stroke="white" stroke-opacity="0.1" stroke-width="1"/>
  <rect x="280" y="116" width="120" height="70" rx="8" fill="url(#cg)" fill-opacity="0.9"/>
  <rect x="420" y="116" width="120" height="70" rx="8" fill="white" fill-opacity="0.06" stroke="white" stroke-opacity="0.1" stroke-width="1"/>
  <rect x="560" y="116" width="100" height="70" rx="8" fill="white" fill-opacity="0.06" stroke="white" stroke-opacity="0.1" stroke-width="1"/>
  <!-- Chart bars -->
  <rect x="140" y="340" width="24" height="60" rx="4" fill="white" fill-opacity="0.15"/>
  <rect x="174" y="310" width="24" height="90" rx="4" fill="url(#cg)"/>
  <rect x="208" y="325" width="24" height="75" rx="4" fill="white" fill-opacity="0.15"/>
  <rect x="242" y="290" width="24" height="110" rx="4" fill="url(#cg)" fill-opacity="0.7"/>
  <rect x="276" y="305" width="24" height="95" rx="4" fill="white" fill-opacity="0.15"/>
  <rect x="310" y="275" width="24" height="125" rx="4" fill="url(#cg)"/>
  <!-- Line chart -->
  <polyline points="420,360 460,320 500,335 540,295 580,310 620,280 640,270" stroke="#6366f1" stroke-width="2.5" fill="none" stroke-linecap="round" stroke-linejoin="round" opacity="0.9"/>
  <circle cx="640" cy="270" r="5" fill="#6366f1"/>
</svg>