<svg xmlns="http://www.w3.org/2000/svg" viewBox="0 0 800 500" aria-hidden="true">
  <defs>
    <linearGradient id="pg" x1="0%" y1="0%" x2="100%" y2="100%">
      <stop offset="0%" stop-color="#6366f1" stop-opacity="0.12"/>
      <stop offset="100%" stop-color="#8b5cf6" stop-opacity="0.04"/>
    </linearGradient>
    <linearGradient id="featured" x1="0%" y1="0%" x2="0%" y2="100%">
      <stop offset="0%" stop-color="#6366f1"/>
      <stop offset="100%" stop-color="#8b5cf6"/>
    </linearGradient>
  </defs>
  <rect width="800" height="500" fill="url(#pg)" rx="16"/>
  <!-- Pricing cards -->
  <rect x="60" y="80" width="200" height="340" rx="12" fill="white" fill-opacity="0.05" stroke="white" stroke-opacity="0.12" stroke-width="1"/>
  <rect x="290" y="60" width="220" height="380" rx="12" fill="url(#featured)" fill-opacity="0.15" stroke="#6366f1" stroke-opacity="0.5" stroke-width="1.5"/>
  <rect x="540" y="80" width="200" height="340" rx="12" fill="white" fill-opacity="0.05" stroke="white" stroke-opacity="0.12" stroke-width="1"/>
  <!-- Plan names -->
  <rect x="100" y="120" width="80" height="10" rx="5" fill="white" fill-opacity="0.3"/>
  <rect x="330" y="100" width="100" height="12" rx="6" fill="white" fill-opacity="0.8"/>
  <rect x="580" y="120" width="80" height="10" rx="5" fill="white" fill-opacity="0.3"/>
  <!-- Prices -->
  <rect x="90" y="155" width="50" height="22" rx="4" fill="white" fill-opacity="0.2"/>
  <rect x="320" y="140" width="70" height="26" rx="4" fill="white" fill-opacity="0.7"/>
  <rect x="570" y="155" width="70" height="22" rx="4" fill="white" fill-opacity="0.2"/>
  <!-- Feature check rows -->
  <circle cx="95" cy="222" r="6" fill="#10b981" fill-opacity="0.6"/>
  <rect x="112" y="218" width="100" height="7" rx="3" fill="white" fill-opacity="0.2"/>
  <circle cx="95" cy="248" r="6" fill="#10b981" fill-opacity="0.6"/>
  <rect x="112" y="244" width="80" height="7" rx="3" fill="white" fill-opacity="0.2"/>
  <circle cx="95" cy="274" r="6" fill="white" fill-opacity="0.2"/>
  <rect x="112" y="270" width="90" height="7" rx="3" fill="white" fill-opacity="0.1"/>
  <circle cx="325" cy="222" r="6" fill="#10b981" fill-opacity="0.9"/>
  <rect x="342" y="218" width="110" height="7" rx="3" fill="white" fill-opacity="0.5"/>
  <circle cx="325" cy="248" r="6" fill="#10b981" fill-opacity="0.9"/>
  <rect x="342" y="244" width="90" height="7" rx="3" fill="white" fill-opacity="0.5"/>
  <circle cx="325" cy="274" r="6" fill="#10b981" fill-opacity="0.9"/>
  <rect x="342" y="270" width="100" height="7" rx="3" fill="white" fill-opacity="0.5"/>
  <!-- CTA buttons -->
  <rect x="100" y="360" width="120" height="36" rx="8" fill="white" fill-opacity="0.1" stroke="white" stroke-opacity="0.2" stroke-width="1"/>
  <rect x="330" y="360" width="140" height="40" rx="8" fill="white" fill-opacity="0.9"/>
  <rect x="580" y="360" width="120" height="36" rx="8" fill="white" fill-opacity="0.1" stroke="white" stroke-opacity="0.2" stroke-width="1"/>
  <!-- Popular badge -->
  <rect x="340" y="42" width="100" height="22" rx="11" fill="#6366f1"/>
  <rect x="358" y="50" width="64" height="6" rx="3" fill="white" fill-opacity="0.9"/>
</svg>